<?xml version="1.0" encoding="UTF-8"?>
<svg width="59px" height="62px" viewBox="0 0 59 62" version="1.1" xmlns="http://www.w3.org/2000/svg" xmlns:xlink="http://www.w3.org/1999/xlink">
    <!-- Generator: Sketch 52.3 (67297) - http://www.bohemiancoding.com/sketch -->
    <title>noun_Coins_679341_000000</title>
    <desc>Created with Sketch.</desc>
    <g id="PIF" stroke="none" stroke-width="1" fill="none" fill-rule="evenodd">
        <g id="Desktop" transform="translate(-897.000000, -2030.000000)" fill="#000000" fill-rule="nonzero">
            <g id="5.-Почему-инвестиции-в-фонды-выгожнее" transform="translate(430.000000, 1847.000000)">
                <g id="утп" transform="translate(0.000000, 103.000000)">
                    <g id="icon-svg" transform="translate(462.000000, 0.000000)">
                        <g id="Group-4" transform="translate(5.000000, 80.000000)">
                            <g id="noun_Coins_679341_000000">
                                <path d="M16.4999995,0 C12.1169809,0 8.14770036,0.690745486 5.180381,1.86476254 C3.69682456,2.45166679 2.45788088,3.15669158 1.53883158,4.01634853 C0.61978122,4.87600548 0,5.95047065 0,7.13999055 L0,19.3799783 L0,43.8600025 C0,45.0494807 0.700424986,46.1241822 1.61926907,46.98386 C2.53831837,47.8434683 3.77726275,48.5483263 5.26102498,49.1352097 C8.22813715,50.3092545 12.1974184,51 16.580437,51 C19.1529933,51 21.5502374,50.7365907 23.71875,50.3027197 L23.71875,48.2149804 C21.6028306,48.6715148 19.1905305,48.9599511 16.5804377,48.9599511 C12.4203752,48.9599511 8.65775656,48.2798421 6.02641864,47.2388575 C4.71075004,46.7182261 3.68383129,46.1062462 3.03723757,45.5015658 C2.39085034,44.8968854 2.0624998,44.3604037 2.0624998,43.8600025 L2.0624998,41.2940387 C2.91142476,41.9601048 3.95566882,42.5307207 5.180381,43.0152019 C8.14770036,44.1892467 12.1169816,44.8799922 16.5000002,44.8799922 C19.1047314,44.8799922 21.5296125,44.6110909 23.71875,44.1667919 L23.71875,42.074951 C21.5846815,42.5423304 19.1433003,42.8400128 16.5000002,42.8400128 C12.3399377,42.8400128 8.57711258,42.1598343 5.94577467,41.1188497 C4.63010606,40.5982183 3.60318731,39.9862384 2.95680008,39.381558 C2.31020636,38.7769472 2.0624998,38.2403959 2.0624998,37.7399947 L2.0624998,35.1741005 C2.91142476,35.8401666 3.95566882,36.4107129 5.180381,36.8951941 C8.14770036,38.0692389 12.1169816,38.7599844 16.5000002,38.7599844 C19.1047314,38.7599844 21.5296125,38.4910831 23.71875,38.0467842 L23.71875,35.9550127 C21.5846815,36.4223226 19.1433003,36.720005 16.5000002,36.720005 C12.3399377,36.720005 8.57711258,36.0398265 5.94577467,34.9988419 C4.63010606,34.4782106 3.60318731,33.8662306 2.95680008,33.2615503 C2.31020636,32.6569394 2.0624998,32.1203881 2.0624998,31.6199869 L2.0624998,29.0540649 C2.91142476,29.7201588 3.95566882,30.2907051 5.180381,30.7752558 C8.14770036,31.9492312 12.1169816,32.6399766 16.5000002,32.6399766 C19.1047314,32.6399766 21.5296125,32.3711448 23.71875,31.9267764 L23.71875,31.6199869 C23.71875,30.9649745 23.8383752,30.3578609 24.0128622,29.7752182 C21.8150628,30.2821542 19.2637501,30.5999972 16.5000002,30.5999972 C12.3399377,30.5999972 8.57711258,29.9198882 5.94577467,28.8788063 C4.63010606,28.3582445 3.60318731,27.746195 2.95680008,27.1415842 C2.31020636,26.5369038 2.0624998,26.0003803 2.0624998,25.4999722 L2.0624998,22.9340641 C2.45416902,23.2412845 2.8951312,23.5244373 3.37177501,23.7906552 C3.92411272,24.1029784 4.52099979,24.3944944 5.180381,24.6552063 C8.14770036,25.8292234 12.1169816,26.519941 16.5000002,26.519941 C20.8830188,26.519941 24.8523,25.8292234 27.8196187,24.6552063 C28.4789999,24.3944944 29.0758876,24.1029784 29.6282246,23.7906552 C30.1048684,23.5244373 30.5458313,23.2412845 30.9374998,22.9340641 L30.9374998,23.4720057 C31.5896624,23.2170083 32.2921497,23.0030135 33,22.7945246 L33,19.3799783 L33,7.13999055 C33,5.95047065 32.3802188,4.87600548 31.4611688,4.01634853 C30.5421188,3.15669158 29.3031751,2.45166679 27.8196187,1.86476254 C24.8523,0.690745486 20.8830188,0 16.5000002,0 L16.4999995,0 Z M16.4999995,2.04000028 C20.6600627,2.04000028 24.4228878,2.72013014 27.054225,3.7613511 C28.3698929,4.28175302 29.3966051,4.8937538 30.0431996,5.49840637 C30.6895875,6.1032675 30.9374998,6.63958243 30.9374998,7.13999055 C30.9374998,7.64040562 30.6895875,8.17692215 30.0431996,8.78157472 C29.3966059,9.38623424 28.3698936,9.99823502 27.054225,10.5188386 C24.4228878,11.559851 20.6600627,12.2399878 16.4999995,12.2399878 C12.339937,12.2399878 8.57711188,11.559851 5.94577467,10.5188386 C4.63010606,9.99823502 3.60318731,9.38623424 2.95680008,8.78157472 C2.31020636,8.17692215 2.0624998,7.64040562 2.0624998,7.13999055 C2.0624998,6.63958243 2.31020636,6.1032675 2.95680008,5.49840637 C3.60318731,4.8937538 4.63010606,4.28175302 5.94577467,3.7613511 C8.57711188,2.72013014 12.339937,2.04000028 16.4999995,2.04000028 Z M2.0624998,10.6940763 C2.91142476,11.3601354 3.95566882,11.9307234 5.180381,12.4152185 C8.14769966,13.5892426 12.1169809,14.2799811 16.4999995,14.2799811 C20.8830188,14.2799811 24.8522993,13.5892426 27.8196187,12.4152185 C29.0443301,11.9307234 30.0885749,11.3601354 30.9374998,10.6940763 L30.9374998,13.2599844 C30.9374998,13.7603995 30.6895875,14.296916 30.0431996,14.9015686 C29.3966059,15.5062281 28.3698936,16.1182289 27.054225,16.6388324 C24.4228878,17.6798448 20.6600627,18.3599816 16.4999995,18.3599816 C12.339937,18.3599816 8.57711188,17.6798448 5.94577467,16.6388324 C4.63010606,16.1182289 3.60318731,15.5062281 2.95680008,14.9015686 C2.31020636,14.296916 2.0624998,13.7603995 2.0624998,13.2599844 L2.0624998,10.6940763 Z M2.0624998,16.8140702 C2.91142476,17.4801293 3.95566882,18.0507173 5.180381,18.5352124 C8.14769966,19.7092364 12.1169809,20.399975 16.4999995,20.399975 C20.8830188,20.399975 24.8522993,19.7092364 27.8196187,18.5352124 C29.0443301,18.0507173 30.0885749,17.4801293 30.9374998,16.8140702 L30.9374998,19.3799783 C30.9374998,19.6302832 30.8756238,19.8887566 30.7312496,20.1608906 C30.5889374,20.4332261 30.3655683,20.7192362 30.042375,21.0215625 C29.3957813,21.626222 28.3690683,22.2382158 27.0533997,22.7588263 C25.0797939,23.53953 22.4690809,24.1164443 19.5324938,24.3565507 C18.5536312,24.4361087 17.5390877,24.4809905 16.4991749,24.4809905 C12.3391124,24.4809905 8.57628803,23.8006521 5.94495012,22.7596397 C4.62928152,22.2392378 3.60236276,21.627237 2.95597483,21.0225844 C2.30938112,20.4177233 2.06167526,19.8814084 2.06167526,19.3810002 L2.06167526,16.8150921 L2.0624998,16.8140702 Z" id="Shape"></path>
                                <path d="M42.4999996,23 C38.1169816,23 34.1477003,23.6950228 31.1803815,24.8763098 C29.696825,25.4668484 28.4578813,26.1762179 27.5388313,27.0412192 C26.6197812,27.9062204 26,28.9872971 26,30.1842389 L26,54.8157891 C26,56.0127029 26.6197812,57.0939894 27.5388313,57.9589907 C28.4578813,58.8239919 29.696825,59.5331446 31.1803815,60.1236622 C34.1477003,61.3049772 38.1169816,62 42.5000004,62 C46.8830191,62 50.8523004,61.3049772 53.8196192,60.1236622 C55.303175,59.5331446 56.5421194,58.8239919 57.4611687,57.9589907 C58.3802188,57.0939894 59,56.0127029 59,54.8157891 L59,30.1842389 C59,28.9872971 58.3802188,27.9062204 57.4611687,27.0412192 C56.5421194,26.1762179 55.303175,25.4668484 53.8196192,24.8763098 C50.8523004,23.6950228 46.8830191,23 42.5000004,23 L42.4999996,23 Z M42.4999996,25.0526327 C46.660063,25.0526327 50.4228868,25.7370021 53.0542255,26.7846427 C54.3698941,27.3082881 55.3966064,27.9240577 56.0432002,28.5324824 C56.6895881,29.1410471 56.9375005,29.680739 56.9375005,30.1842389 C56.9375005,30.6877387 56.6895881,31.2276125 56.0432002,31.8359673 C55.3966057,32.4443921 54.3698941,33.0601616 53.0542255,33.5840169 C50.4228875,34.6314476 46.660063,35.3158381 42.4999996,35.3158381 C38.3399377,35.3158381 34.5771125,34.6314476 31.9457752,33.5840169 C30.6301066,33.0601616 29.6031878,32.4443921 28.9567998,31.8359673 C28.3102054,31.2276125 28.0625002,30.6877387 28.0625002,30.1842389 C28.0625002,29.680739 28.3102061,29.1410471 28.9567998,28.5324824 C29.6031878,27.9240577 30.6301059,27.3082881 31.9457752,26.7846427 C34.5771118,25.7370021 38.3399377,25.0526327 42.4999996,25.0526327 Z M28.0625002,33.7602908 C28.454168,34.0694696 28.8951316,34.3543758 29.3717755,34.6222142 C29.9241125,34.9364994 30.5210003,35.2297996 31.1803815,35.492112 C34.1477003,36.6734269 38.1169816,37.3684498 42.5000004,37.3684498 C43.5958067,37.3684498 44.6676878,37.3229823 45.702444,37.2411408 C48.8071255,36.9903702 51.5941812,36.3790775 53.8196192,35.4931612 C54.4790004,35.2308489 55.0758875,34.9374787 55.6282252,34.6232635 C56.1048691,34.3553551 56.5458313,34.0704489 56.9375005,33.7613401 L56.9375005,36.3431232 C56.9375005,36.846693 56.6895881,37.3864969 56.0432002,37.9949216 C55.3966064,38.6032765 54.3698941,39.2191159 53.0542255,39.7429012 C50.4228875,40.7904019 46.660063,41.4747224 42.5000004,41.4747224 C38.3399377,41.4747224 34.5771125,40.7904019 31.9457752,39.7429012 C30.6301066,39.2191159 29.6031878,38.6032765 28.9568005,37.9949216 C28.3102061,37.3864969 28.0625002,36.846693 28.0625002,36.3431232 L28.0625002,33.7613401 L28.0625002,33.7602908 Z M28.0625002,39.9181959 C28.9114252,40.5883864 29.9556693,41.1625357 31.1803808,41.650017 C34.1477003,42.831332 38.1169816,43.5263548 42.4999996,43.5263548 C46.8830184,43.5263548 50.8522997,42.831332 53.8196192,41.650017 C55.0443314,41.1625357 56.0885748,40.5883864 56.9375005,39.9181959 L56.9375005,42.499979 C56.9375005,43.0035488 56.6895881,43.5433527 56.0432002,44.1517774 C55.3966057,44.7601323 54.3698941,45.3759717 53.0542255,45.899757 C50.4228875,46.9472577 46.660063,47.6315782 42.4999996,47.6315782 C38.3399377,47.6315782 34.5771125,46.9472577 31.9457752,45.899757 C30.6301066,45.3759717 29.6031878,44.7601323 28.9567998,44.1517774 C28.3102054,43.5433527 28.0625002,43.0035488 28.0625002,42.499979 L28.0625002,39.9181959 Z M28.0625002,46.0761009 C28.9114252,46.7462915 29.9556693,47.3204408 31.1803808,47.8079221 C34.1477003,48.9891671 38.1169816,49.6841899 42.4999996,49.6841899 C46.8830184,49.6841899 50.8522997,48.9891671 53.8196192,47.8079221 C55.0443314,47.3204408 56.0885748,46.7462915 56.9375005,46.0761009 L56.9375005,48.6578841 C56.9375005,49.1613839 56.6895881,49.7012577 56.0432002,50.3096825 C55.3966057,50.9180373 54.3698941,51.5338768 53.0542255,52.0576621 C50.4228875,53.1051628 46.660063,53.7894833 42.4999996,53.7894833 C38.3399377,53.7894833 34.5771125,53.1051628 31.9457752,52.0576621 C30.6301066,51.5338768 29.6031878,50.9180373 28.9567998,50.3096825 C28.3102054,49.7012577 28.0625002,49.1613839 28.0625002,48.6578841 L28.0625002,46.0761009 Z M28.0625002,52.2340059 C28.9114252,52.9041965 29.9556693,53.4782759 31.1803808,53.9658271 C34.1477003,55.1470721 38.1169816,55.842095 42.4999996,55.842095 C46.8830184,55.842095 50.8522997,55.1470721 53.8196192,53.9658271 C55.0443314,53.4782759 56.0885748,52.9041965 56.9375005,52.2340059 L56.9375005,54.8157891 C56.9375005,55.3192889 56.6895881,55.8591627 56.0432002,56.4675176 C55.3966057,57.0759423 54.3698941,57.6917119 53.0542255,58.2155671 C50.4228875,59.2629979 46.660063,59.9473883 42.4999996,59.9473883 C38.3399377,59.9473883 34.5771125,59.2629979 31.9457752,58.2155671 C30.6301066,57.6917119 29.6031878,57.0759423 28.9567998,56.4675176 C28.3102054,55.8591627 28.0625002,55.3192889 28.0625002,54.8157891 L28.0625002,52.2340059 Z" id="Shape" stroke-opacity="0" stroke="#FFFFFF"></path>
                            </g>
                        </g>
                    </g>
                </g>
            </g>
        </g>
    </g>
</svg>