<?xml version="1.0" encoding="UTF-8"?>
<svg width="187px" height="47px" viewBox="0 0 187 47" version="1.1" xmlns="http://www.w3.org/2000/svg" xmlns:xlink="http://www.w3.org/1999/xlink">
    <!-- Generator: Sketch 52.3 (67297) - http://www.bohemiancoding.com/sketch -->
    <title>logo--full</title>
    <desc>Created with Sketch.</desc>
    <defs>
        <linearGradient x1="21.253727%" y1="21.3390013%" x2="78.4288216%" y2="78.5121001%" id="linearGradient-1">
            <stop stop-color="#FFFFFF" offset="0%"></stop>
            <stop stop-color="#C8102E" offset="100%"></stop>
        </linearGradient>
        <linearGradient x1="78.604041%" y1="78.6844774%" x2="21.4327077%" y2="21.5151397%" id="linearGradient-2">
            <stop stop-color="#FFFFFF" offset="0%"></stop>
            <stop stop-color="#C8102E" offset="100%"></stop>
        </linearGradient>
    </defs>
    <g id="PIF" stroke="none" stroke-width="1" fill="none" fill-rule="evenodd">
        <g id="LP_DU" transform="translate(-405.000000, -26.000000)" fill-rule="nonzero">
            <g id="1.-Первый-экран">
                <g id="Header">
                    <g id="logo--full" transform="translate(405.000000, 26.000000)">
                        <path d="M67.5489818,14.511658 L63.8926802,19.6878238 L60.2718767,14.511658 L60.2718767,21.4715026 L58,21.4715026 L58,10.2448187 L59.7749037,10.2448187 L63.8926802,15.9805699 L68.0459549,10.2448187 L69.7853605,10.2448187 L69.7853605,21.4715026 L67.5134838,21.4715026 L67.5134838,14.511658 L67.5489818,14.511658 Z M77.736929,21.7512953 C76.8849752,21.7512953 76.1040176,21.611399 75.3940561,21.2966321 C74.6840947,21.0168394 74.0451293,20.5971503 73.5126582,20.0725389 C72.9801871,19.5479275 72.5542102,18.9533679 72.2702256,18.2189119 C71.9862411,17.484456 71.8442488,16.7150259 71.8442488,15.8756477 C71.8442488,15.0362694 71.9862411,14.2318653 72.2702256,13.5323834 C72.5542102,12.7979275 72.9801871,12.2033679 73.5126582,11.6787565 C74.0451293,11.1541451 74.6840947,10.7694301 75.3940561,10.4546632 C76.1040176,10.1748705 76.8849752,10 77.736929,10 C78.5888828,10 79.3698404,10.1398964 80.0798019,10.4546632 C80.7897633,10.734456 81.4287287,11.1541451 81.9611998,11.6787565 C82.4936709,12.2033679 82.8841497,12.7979275 83.2036324,13.5323834 C83.487617,14.2668394 83.6651073,15.0362694 83.6651073,15.8756477 C83.6651073,16.7150259 83.523115,17.5194301 83.2036324,18.2189119 C82.9196478,18.9533679 82.4936709,19.5479275 81.9611998,20.0725389 C81.4287287,20.5971503 80.8252614,20.9818653 80.0798019,21.2966321 C79.3698404,21.5764249 78.5888828,21.7512953 77.736929,21.7512953 Z M77.736929,12.1683938 C77.239956,12.1683938 76.778481,12.2733161 76.3170061,12.4481865 C75.8910292,12.623057 75.5005504,12.9028497 75.1810677,13.2176166 C74.861585,13.5323834 74.6130985,13.9170984 74.4356081,14.3717617 C74.2581178,14.8264249 74.1516236,15.3160622 74.1516236,15.8756477 C74.1516236,16.4352332 74.2581178,16.9248705 74.4356081,17.3795337 C74.6130985,17.8341969 74.861585,18.2189119 75.1810677,18.5686528 C75.5005504,18.8834197 75.8910292,19.1632124 76.3170061,19.3380829 C76.7429829,19.5129534 77.239956,19.6178756 77.736929,19.6178756 C78.2694001,19.6178756 78.7308751,19.5129534 79.156852,19.3380829 C79.5828288,19.1632124 79.9733076,18.8834197 80.2927903,18.5686528 C80.612273,18.253886 80.8607595,17.869171 81.0382499,17.4145078 C81.2157402,16.9598446 81.3222345,16.4702073 81.3222345,15.9106218 C81.3222345,15.3510363 81.2157402,14.861399 81.0382499,14.4067358 C80.8607595,13.9520725 80.612273,13.5673575 80.2927903,13.2525907 C79.9733076,12.9378238 79.5828288,12.6580311 79.156852,12.4831606 C78.7308751,12.238342 78.2694001,12.1683938 77.736929,12.1683938 Z M96.4089158,18.638601 C96.1604293,19.1282383 95.8409466,19.5829016 95.4859659,19.9676166 C95.1309851,20.3523316 94.7405063,20.6670984 94.3855256,20.9119171 C93.9240506,21.2266839 93.4270776,21.4365285 92.9301046,21.5764249 C92.4331315,21.7163212 91.8651624,21.7512953 91.2616951,21.7512953 C90.4807375,21.7512953 89.6997799,21.6463731 88.9898184,21.4015544 C88.2443588,21.1567358 87.5698954,20.7370466 86.9664282,20.107513 C86.5049532,19.6528497 86.1144744,19.0582902 85.7949917,18.3588083 C85.4755091,17.6593264 85.3335168,16.8549223 85.3335168,15.9455959 C85.3335168,15.1761658 85.4755091,14.4067358 85.7594937,13.6373057 C86.0434783,12.8678756 86.4339571,12.2033679 87.0019263,11.6437824 C87.1794166,11.4689119 87.4279031,11.2590674 87.6763897,11.0841969 C87.9248762,10.9093264 88.2443588,10.734456 88.5993396,10.5595855 C88.9543203,10.384715 89.3447991,10.2797927 89.8062741,10.1748705 C90.267749,10.0699482 90.7647221,10.0349741 91.3326912,10.0349741 C91.9361585,10.0349741 92.5041277,10.1049223 93.0365988,10.2448187 C93.5690699,10.384715 93.9950468,10.5595855 94.4210237,10.8044041 C94.7760044,11.0142487 95.1309851,11.2590674 95.4859659,11.5738342 C95.8409466,11.888601 96.1249312,12.238342 96.4089158,12.6580311 L94.4920198,13.9870466 C94.3500275,13.742228 94.1370391,13.4974093 93.9240506,13.2525907 C93.7110622,13.007772 93.4625757,12.7979275 93.2140892,12.6580311 C93.0011007,12.5181347 92.7171161,12.4132124 92.3976335,12.3432642 C92.0781508,12.2733161 91.7231701,12.2033679 91.3326912,12.2033679 C90.8002201,12.2033679 90.3032471,12.2733161 89.8772702,12.4481865 C89.4512933,12.5880829 89.0963126,12.8678756 88.7413319,13.1826425 C88.4573473,13.4624352 88.2088608,13.8121762 87.9958723,14.2668394 C87.7828839,14.7215026 87.6763897,15.2810881 87.6763897,15.9455959 C87.6763897,16.5401554 87.7828839,17.0647668 87.9958723,17.5194301 C88.2088608,17.9740933 88.4573473,18.3588083 88.7768299,18.6735751 C89.0608145,18.9533679 89.4157953,19.1632124 89.8062741,19.3380829 C90.232251,19.5129534 90.6937259,19.5829016 91.226197,19.5829016 C91.6521739,19.5829016 92.0426527,19.5129534 92.3976335,19.4080311 C92.7526142,19.3031088 93.0720969,19.1282383 93.3915795,18.8834197 C93.640066,18.7085492 93.8885526,18.4637306 94.101541,18.2189119 C94.3500275,17.9740933 94.5275179,17.6593264 94.7050083,17.2746114 L96.4089158,18.638601 Z M102.834067,15.9106218 L100.881673,17.5544041 L100.881673,21.4715026 L98.6097964,21.4715026 L98.6097964,10.2448187 L100.881673,10.2448187 L100.881673,14.8963731 L106.383875,10.2448187 L109.365713,10.2448187 L104.537975,14.4417098 L109.685195,21.4715026 L106.951844,21.4715026 L102.834067,15.9106218 Z M116.074849,21.7512953 C115.222895,21.7512953 114.441937,21.611399 113.731976,21.2966321 C113.022014,21.0168394 112.383049,20.5971503 111.850578,20.0725389 C111.318107,19.5479275 110.89213,18.9533679 110.608145,18.2189119 C110.324161,17.484456 110.182168,16.7150259 110.182168,15.8756477 C110.182168,15.0362694 110.324161,14.2318653 110.608145,13.5323834 C110.89213,12.7979275 111.318107,12.2033679 111.850578,11.6787565 C112.383049,11.1541451 112.986516,10.7694301 113.731976,10.4546632 C114.441937,10.1748705 115.222895,10 116.074849,10 C116.926802,10 117.70776,10.1398964 118.417722,10.4546632 C119.127683,10.734456 119.766648,11.1541451 120.299119,11.6787565 C120.831591,12.2033679 121.222069,12.7979275 121.541552,13.5323834 C121.825537,14.2668394 122.003027,15.0362694 122.003027,15.8756477 C122.003027,16.7150259 121.861035,17.5194301 121.541552,18.2189119 C121.257567,18.9533679 120.831591,19.5479275 120.299119,20.0725389 C119.766648,20.5971503 119.163181,20.9818653 118.417722,21.2966321 C117.70776,21.5764249 116.926802,21.7512953 116.074849,21.7512953 Z M116.074849,12.1683938 C115.577876,12.1683938 115.116401,12.2733161 114.654926,12.4481865 C114.228949,12.623057 113.83847,12.9028497 113.518987,13.2176166 C113.199505,13.5323834 112.951018,13.9170984 112.773528,14.3717617 C112.596037,14.8264249 112.489543,15.3160622 112.489543,15.8756477 C112.489543,16.4352332 112.596037,16.9248705 112.773528,17.3795337 C112.951018,17.8341969 113.199505,18.2189119 113.518987,18.5686528 C113.83847,18.8834197 114.228949,19.1632124 114.654926,19.3380829 C115.080903,19.5129534 115.577876,19.6178756 116.074849,19.6178756 C116.60732,19.6178756 117.068795,19.5129534 117.494772,19.3380829 C117.920748,19.1632124 118.311227,18.8834197 118.63071,18.5686528 C118.950193,18.253886 119.198679,17.869171 119.37617,17.4145078 C119.55366,16.9598446 119.660154,16.4702073 119.660154,15.9106218 C119.660154,15.3510363 119.55366,14.861399 119.37617,14.4067358 C119.198679,13.9520725 118.950193,13.5673575 118.63071,13.2525907 C118.311227,12.9378238 117.920748,12.6580311 117.494772,12.4831606 C117.068795,12.238342 116.60732,12.1683938 116.074849,12.1683938 Z M131.303522,10.2797927 C131.587507,10.3147668 131.871491,10.3497409 132.155476,10.4196891 C132.439461,10.4896373 132.723445,10.5945596 133.00743,10.6994819 C133.291414,10.8393782 133.504403,10.9792746 133.752889,11.2240933 C134.072372,11.5388601 134.249862,11.8536269 134.356357,12.2033679 C134.427353,12.5531088 134.498349,12.8329016 134.498349,13.0777202 C134.498349,13.4274611 134.462851,13.7072539 134.391855,13.9520725 C134.320859,14.1968912 134.249862,14.4067358 134.143368,14.5816062 C134.036874,14.7564767 133.93038,14.8963731 133.823886,15.0012953 C133.717391,15.1062176 133.610897,15.1761658 133.539901,15.246114 C133.752889,15.3160622 133.965878,15.4559585 134.178866,15.630829 C134.391855,15.8056995 134.604843,16.0505181 134.817832,16.365285 C134.959824,16.6450777 135.101816,16.9248705 135.172812,17.2046632 C135.243808,17.484456 135.279307,17.7642487 135.279307,18.0790155 C135.279307,18.6735751 135.172812,19.1981865 134.995322,19.5829016 C134.782334,19.9676166 134.569345,20.2823834 134.320859,20.5272021 C133.859384,20.9818653 133.362411,21.2966321 132.829939,21.4015544 C132.297468,21.5064767 131.764997,21.5764249 131.268024,21.5764249 L124.274904,21.5764249 L124.274904,10.2448187 L130.522565,10.2448187 C130.735553,10.2448187 131.019538,10.2448187 131.303522,10.2797927 Z M131.268024,14.4067358 C131.481013,14.3717617 131.658503,14.3367876 131.764997,14.2318653 C131.835993,14.1619171 131.942488,14.0919689 132.048982,13.9520725 C132.155476,13.8121762 132.190974,13.6023316 132.190974,13.3225389 C132.190974,13.2176166 132.155476,13.0777202 132.119978,12.9028497 C132.08448,12.7279793 131.942488,12.5880829 131.764997,12.4831606 C131.694001,12.4481865 131.587507,12.4132124 131.481013,12.3782383 C131.374518,12.3432642 131.268024,12.3432642 131.16153,12.3082902 C131.055036,12.3082902 130.948542,12.2733161 130.877545,12.2733161 L126.511282,12.2733161 L126.511282,14.4417098 L130.700055,14.4417098 C130.877545,14.4417098 131.055036,14.4417098 131.268024,14.4067358 Z M131.729499,19.373057 C132.013484,19.3380829 132.226472,19.2681347 132.403963,19.0932642 C132.545955,18.9533679 132.687947,18.7784974 132.758943,18.5686528 C132.829939,18.3588083 132.900936,18.1139896 132.900936,17.9041451 C132.900936,17.5893782 132.829939,17.3445596 132.723445,17.1696891 C132.616951,16.9948187 132.545955,16.9248705 132.474959,16.8898964 C132.332966,16.75 132.119978,16.6450777 131.835993,16.6101036 C131.587507,16.5401554 131.33902,16.5401554 131.090534,16.5401554 L126.511282,16.5401554 L126.511282,19.4430052 L130.98404,19.4430052 C131.197028,19.4080311 131.481013,19.4080311 131.729499,19.373057 Z M148.236103,18.638601 C147.987617,19.1282383 147.668134,19.5829016 147.313154,19.9676166 C146.958173,20.3523316 146.567694,20.6670984 146.212713,20.9119171 C145.751238,21.2266839 145.254265,21.4365285 144.757292,21.5764249 C144.260319,21.7163212 143.69235,21.7512953 143.088883,21.7512953 C142.307925,21.7512953 141.526968,21.6463731 140.817006,21.4015544 C140.071547,21.1567358 139.397083,20.7370466 138.793616,20.107513 C138.332141,19.6528497 137.941662,19.0582902 137.622179,18.3588083 C137.302697,17.6593264 137.160704,16.8549223 137.160704,15.9455959 C137.160704,15.1761658 137.302697,14.4067358 137.586681,13.6373057 C137.870666,12.8678756 138.261145,12.2033679 138.829114,11.6437824 C139.006604,11.4689119 139.255091,11.2590674 139.503577,11.0841969 C139.752064,10.9093264 140.071547,10.734456 140.426527,10.5595855 C140.781508,10.384715 141.171987,10.2797927 141.633462,10.1748705 C142.094937,10.0699482 142.59191,10.0349741 143.159879,10.0349741 C143.763346,10.0349741 144.331315,10.1049223 144.863786,10.2448187 C145.396258,10.384715 145.822234,10.5595855 146.248211,10.8044041 C146.603192,11.0142487 146.958173,11.2590674 147.313154,11.5738342 C147.668134,11.888601 147.952119,12.238342 148.236103,12.6580311 L146.319207,13.9870466 C146.177215,13.742228 145.964227,13.4974093 145.751238,13.2525907 C145.53825,13.007772 145.289763,12.7979275 145.041277,12.6580311 C144.828288,12.5181347 144.544304,12.4132124 144.224821,12.3432642 C143.905338,12.2733161 143.550358,12.2033679 143.159879,12.2033679 C142.627408,12.2033679 142.130435,12.2733161 141.704458,12.4481865 C141.278481,12.5880829 140.9235,12.8678756 140.56852,13.1826425 C140.284535,13.4624352 140.036048,13.8121762 139.82306,14.2668394 C139.610072,14.7215026 139.503577,15.2810881 139.503577,15.9455959 C139.503577,16.5401554 139.610072,17.0647668 139.82306,17.5194301 C140.036048,17.9740933 140.284535,18.3588083 140.604018,18.6735751 C140.888002,18.9533679 141.242983,19.1632124 141.633462,19.3380829 C142.059439,19.5129534 142.520914,19.5829016 143.053385,19.5829016 C143.479362,19.5829016 143.86984,19.5129534 144.224821,19.4080311 C144.579802,19.3031088 144.899285,19.1282383 145.218767,18.8834197 C145.467254,18.7085492 145.71574,18.4637306 145.928729,18.2189119 C146.177215,17.9740933 146.354706,17.6593264 146.532196,17.2746114 L148.236103,18.638601 Z M154.696753,15.9106218 L152.744359,17.5544041 L152.744359,21.4715026 L150.472482,21.4715026 L150.472482,10.2448187 L152.744359,10.2448187 L152.744359,14.8963731 L158.211062,10.2448187 L161.1929,10.2448187 L156.365162,14.4417098 L161.512383,21.4715026 L158.779031,21.4715026 L154.696753,15.9106218 Z M171.451844,18.6735751 L166.269125,18.6735751 L164.920198,21.4715026 L162.435333,21.4715026 L168.008531,10.2448187 L169.712438,10.2448187 L175.356632,21.4715026 L172.871767,21.4715026 L171.451844,18.6735751 Z M167.369565,16.5401554 L170.386901,16.5401554 L168.860484,13.5323834 L167.369565,16.5401554 Z M178.941937,21.4715026 L176.279582,21.4715026 L179.296918,16.8199482 C178.941937,16.75 178.622455,16.6450777 178.267474,16.4702073 C177.912493,16.2953368 177.628509,16.0854922 177.380022,15.8406736 C177.060539,15.5259067 176.847551,15.1411917 176.741057,14.7564767 C176.634562,14.3717617 176.563566,13.9870466 176.563566,13.6373057 C176.563566,13.2525907 176.634562,12.8678756 176.741057,12.4481865 C176.847551,12.0284974 177.096037,11.6437824 177.451018,11.2590674 C177.699505,11.0142487 177.983489,10.8044041 178.267474,10.6645078 C178.551458,10.5246114 178.835443,10.4196891 179.119428,10.3497409 C179.403412,10.2797927 179.687397,10.2448187 179.935883,10.2448187 C180.18437,10.2448187 180.432856,10.2098446 180.681343,10.2098446 L187,10.2098446 L187,21.4365285 L184.728123,21.4365285 L184.728123,16.9948187 L181.817281,16.9948187 L178.941937,21.4715026 Z M180.432856,12.3432642 C180.255366,12.3432642 180.042378,12.3432642 179.864887,12.3782383 C179.687397,12.4132124 179.474408,12.4831606 179.332416,12.623057 C179.225922,12.6930052 179.119428,12.7979275 179.012933,12.9727979 C178.906439,13.1476684 178.870941,13.3225389 178.870941,13.5673575 C178.870941,13.9870466 179.012933,14.3018135 179.296918,14.5466321 C179.580903,14.7564767 180.006879,14.8963731 180.574849,14.8963731 L184.728123,14.8963731 L184.728123,12.3432642 L180.432856,12.3432642 Z M67.7264722,25.738342 L67.7264722,27.8717617 L60.2718767,27.8717617 L60.2718767,29.8303109 L63.5376995,29.8303109 C63.9991745,29.8303109 64.4251513,29.8303109 64.8156302,29.865285 C65.241607,29.865285 65.6320859,29.9352332 65.9870666,29.9702073 C66.3420473,30.0401554 66.6970281,30.1450777 67.0165107,30.2849741 C67.3359934,30.4248705 67.619978,30.634715 67.9039626,30.8795337 C68.2589433,31.2292746 68.5074298,31.5790155 68.6494221,31.9987047 C68.7914144,32.4183938 68.8624106,32.873057 68.8624106,33.3626943 C68.8624106,34.0272021 68.7559163,34.5518135 68.5074298,34.9715026 C68.2944414,35.3911917 68.0459549,35.7059585 67.7619703,35.9507772 C67.5134838,36.1955959 67.123005,36.4054404 66.66153,36.615285 C66.164557,36.8251295 65.5610897,36.9300518 64.8511282,36.9300518 L58,36.9300518 L58,25.738342 L67.7264722,25.738342 Z M64.744634,34.8316062 C64.8866263,34.8316062 65.0996147,34.7966321 65.3835993,34.761658 C65.6320859,34.7266839 65.8805724,34.6217617 66.0935608,34.4468912 C66.2355531,34.3069948 66.3420473,34.1670984 66.4485416,33.9572539 C66.5195377,33.7474093 66.5905338,33.5375648 66.5905338,33.3277202 C66.5905338,33.1178756 66.5550358,32.873057 66.4485416,32.6981865 C66.3775454,32.488342 66.2355531,32.3484456 66.0935608,32.2435233 C65.9160704,32.1036269 65.7385801,31.9987047 65.4900936,31.9637306 C65.2771051,31.9287565 65.0286186,31.8937824 64.8511282,31.8937824 L60.2718767,31.8937824 L60.2718767,34.7966321 L64.744634,34.7966321 L64.744634,34.8316062 Z M72.7317006,36.9650259 L71.1697854,36.9650259 L71.1697854,25.738342 L73.4416621,25.738342 L73.4416621,33.0129534 L79.2278481,25.738342 L80.7897633,25.738342 L80.7897633,36.9650259 L78.5178866,36.9650259 L78.5178866,29.6904145 L72.7317006,36.9650259 Z M90.0902587,25.738342 C90.8357182,25.738342 91.4391855,25.8432642 91.9006604,26.0531088 C92.3621354,26.2629534 92.6816181,26.4727979 92.9301046,26.7176166 C93.143093,26.9274611 93.3560815,27.242228 93.5690699,27.626943 C93.7465603,28.011658 93.8530545,28.5362694 93.8530545,29.1658031 C93.8530545,29.7953368 93.7465603,30.3199482 93.5690699,30.7396373 C93.3560815,31.1593264 93.143093,31.4740933 92.9301046,31.7189119 C92.7171161,31.9287565 92.4686296,32.138601 92.2556412,32.2435233 C92.0071547,32.3834197 91.7586681,32.4533679 91.5456797,32.5233161 C91.3326912,32.5932642 91.0842047,32.6282383 90.8712163,32.6632124 C90.6582278,32.6981865 90.4807375,32.6981865 90.3032471,32.6981865 L85.901486,32.6981865 L85.901486,37 L83.6296092,37 L83.6296092,25.738342 L90.0902587,25.738342 Z M89.9127683,30.4948187 C90.0547606,30.4948187 90.267749,30.4948187 90.5162356,30.4248705 C90.7647221,30.3898964 90.9422124,30.2849741 91.1197028,30.1450777 C91.1552009,30.1101036 91.2616951,30.0051813 91.3681893,29.8303109 C91.4746835,29.6554404 91.5456797,29.4106218 91.5456797,29.0958549 C91.5456797,28.8160622 91.5101816,28.6062176 91.4036874,28.4663212 C91.2971932,28.3264249 91.226197,28.2215026 91.1552009,28.1515544 C91.0132086,28.011658 90.8002201,27.9067358 90.6227298,27.9067358 C90.4097413,27.8717617 90.232251,27.8717617 90.0192625,27.8717617 L85.901486,27.8717617 L85.901486,30.5297927 L89.9127683,30.5297927 L89.9127683,30.4948187 Z M99.887727,31.7888601 L96.7638965,36.9650259 L93.9595487,36.9650259 L98.2548156,30.2150259 L94.2435333,25.7033679 L96.976885,25.7033679 L100.952669,30.2849741 L100.952669,25.738342 L103.15355,25.738342 L103.15355,30.3199482 L107.129334,25.738342 L109.898184,25.738342 L105.886901,30.25 L110.182168,37 L107.377821,37 L104.25399,31.8238342 L103.15355,33.0129534 L103.15355,37 L100.952669,37 L100.952669,32.9080311 L99.887727,31.7888601 Z M119.873143,34.1670984 L114.690424,34.1670984 L113.341497,36.9650259 L110.856632,36.9650259 L116.429829,25.738342 L118.133737,25.738342 L123.777931,36.9650259 L121.293065,36.9650259 L119.873143,34.1670984 Z M115.790864,32.0686528 L118.8082,32.0686528 L117.281783,29.0608808 L115.790864,32.0686528 Z" id="Shape" fill="#000000"></path>
                        <g id="Group">
                            <polygon id="Shape" fill="#C8102E" points="0 0 46.7879699 0 46.7879699 46.7879699 0 46.7879699"></polygon>
                            <path d="M11.5556391,14.9834586 L11.5556391,31.5571429 L15.5135338,34.1015038 L23.3586466,26.2210526 L31.2390977,34.1015038 L35.1969925,31.5571429 L35.1969925,14.9834586 L31.2390977,12.7571429 L23.393985,20.637594 L15.5135338,12.7571429 L11.5556391,14.9834586 Z M26.1857143,23.4293233 L31.2390977,18.3759398 L31.2390977,28.4827068 L26.1857143,23.4293233 Z M15.5135338,28.4827068 L15.5135338,18.3759398 L20.5669173,23.4293233 L15.5135338,28.4827068 Z" id="Shape" fill="#FFFFFF"></path>
                            <polygon id="Shape" fill="url(#linearGradient-1)" points="24.8075188 22.0157895 21.9804511 24.8428571 18.1639098 20.9909774 20.9556391 18.1992481"></polygon>
                            <polygon id="Shape" fill="url(#linearGradient-2)" points="21.9804511 24.8428571 24.8075188 22.0157895 28.6240602 25.8676692 25.8323308 28.6593985"></polygon>
                            <polygon id="Shape" fill="#FFFFFF" points="25.337594 18.693985 28.1293233 21.5210526 21.4503759 28.1646617 18.6586466 25.3729323"></polygon>
                        </g>
                    </g>
                </g>
            </g>
        </g>
    </g>
</svg>