<svg xmlns="http://www.w3.org/2000/svg" xmlns:xlink="http://www.w3.org/1999/xlink" width="180" height="180" viewBox="0 0 60 60"><defs><path id="2iera" d="M1333.5 2087.125h-42.98a8.24 8.24 0 0 0 1.528-2.813h46.87c-.374 1.116-1.593 2.813-5.417 2.813zm-46.87 0c-2.729 0-3.62-3.272-3.75-3.853v-52.397h38.434V2044c0 .518.42.938.937.938h13.124v37.5h-44.059a.937.937 0 0 0-.937.75s-.806 3.937-3.75 3.937zm36.559-54.928l10.865 10.856h-10.865zm16.874 50.24h-2.813V2044a.938.938 0 0 0-.272-.666l-14.061-14.062a.937.937 0 0 0-.666-.272h-40.309a.937.937 0 0 0-.937.938v53.437a.937.937 0 0 0 0 .188c.375 1.874 2.034 5.437 5.624 5.437h46.872c7.415 0 7.499-5.569 7.499-5.625a.937.937 0 0 0-.937-.938z"/><path id="2ierb" d="M1288.8 2038.5a2.7 2.7 0 1 1 5.4 0 2.7 2.7 0 0 1-5.4 0zm7.2 0a4.5 4.5 0 1 0-9 0 4.5 4.5 0 0 0 9 0z"/><path id="2ierc" d="M1299 2038v-2h11v2z"/><path id="2ierd" d="M1299 2041v-2h2v2z"/><path id="2iere" d="M1302 2041v-2h2v2z"/><path id="2ierf" d="M1296 2051v-2h32v2z"/><path id="2ierg" d="M1290 2057v-2h38v2z"/><path id="2ierh" d="M1290 2064v-2h38v2z"/><path id="2ieri" d="M1298 2070v-2h30v2z"/><path id="2ierj" d="M1290 2070v-2h2v2z"/><path id="2ierk" d="M1294 2070v-2h2v2z"/><path id="2ierl" d="M1324.222 2074.007c-.99.01-1.927.48-2.56 1.285-.462.489-.689.708-1.218.708-.528 0-.755-.22-1.218-.708-.624-.817-1.565-1.292-2.56-1.292-.994 0-1.935.475-2.559 1.292-.463.489-.69.708-1.218.708H1311v1.993h1.889a3.306 3.306 0 0 0 2.56-1.285c.462-.489.689-.708 1.218-.708s.755.22 1.218.708c.624.817 1.565 1.292 2.56 1.292.994 0 1.935-.475 2.559-1.292.463-.489.69-.708 1.218-.708.53 0 .756.22 1.219.708a3.297 3.297 0 0 0 2.559 1.285V2076c-.529 0-.756-.22-1.218-.708a3.297 3.297 0 0 0-2.56-1.285z"/></defs><g><g transform="translate(-1281 -2029)"><g><g><use xlink:href="#2iera"/></g><g><use xlink:href="#2ierb"/></g><g><use xlink:href="#2ierc"/></g><g><use xlink:href="#2ierd"/></g><g><use xlink:href="#2iere"/></g><g><use xlink:href="#2ierf"/></g><g><use xlink:href="#2ierg"/></g><g><use xlink:href="#2ierh"/></g><g><use xlink:href="#2ieri"/></g><g><use xlink:href="#2ierj"/></g><g><use xlink:href="#2ierk"/></g><g><use xlink:href="#2ierl"/></g></g></g></g></svg>