<svg xmlns="http://www.w3.org/2000/svg" xmlns:xlink="http://www.w3.org/1999/xlink" width="177" height="177" viewBox="0 0 59 59"><defs><path id="p0dsa" d="M819.959 788.073v4.844H800.04v-4.844h19.918zm-16.025-2.507c0-1.522 1.269-2.775 2.81-2.775h6.523c1.54 0 2.809 1.253 2.809 2.775v.627h-12.142zm22.724 52.733H791.26c-.815 0-1.448-.627-1.448-1.433V792.55c0-.805.633-1.432 1.448-1.432h6.971v2.596c0 .537.363.895.906.895h21.728c.543 0 .906-.358.906-.895v-2.596h6.97c.816 0 1.45.627 1.45 1.432v19.07c0 .537.361.895.905.895.543 0 .905-.358.905-.895v-19.07c0-1.79-1.449-3.223-3.26-3.223h-6.97v-2.148c0-.538-.363-.896-.906-.896h-2.987v-.716c0-2.507-2.083-4.566-4.618-4.566h-6.518c-2.535 0-4.618 2.06-4.618 4.566v.627h-2.987c-.543 0-.906.358-.906.895v2.149h-6.97c-1.811 0-3.26 1.432-3.26 3.223v44.317c0 1.79 1.449 3.223 3.26 3.223h35.398c.544 0 .906-.358.906-.895 0-.448-.362-.806-.906-.806z"/><path id="p0dsb" d="M817.767 800.338c-.366-.381-.916-.476-1.282-.096l-5.218 4.474-1.556-2.475c-.275-.476-.824-.571-1.282-.285-.458.285-.55.856-.275 1.332l2.106 3.331c.183.19.366.381.64.381.276 0 .55 0 .733-.19l6.042-5.235a.834.834 0 0 0 .092-1.237z"/><path id="p0dsc" d="M817.767 813.333c-.366-.376-.916-.47-1.282-.094l-5.218 4.507-1.556-2.441c-.275-.47-.824-.563-1.282-.282-.458.282-.55.845-.275 1.315l2.106 3.286c.183.188.366.376.64.376.276 0 .55 0 .733-.188l6.042-5.164c.367-.282.458-.94.092-1.315z"/><path id="p0dsd" d="M816.485 826.191l-5.218 4.477-1.556-2.332c-.275-.466-.824-.56-1.282-.28-.458.28-.55.84-.275 1.306l2.106 3.265c.183.186.366.373.64.373.276 0 .55 0 .733-.187l6.042-5.13c.367-.373.458-.932.092-1.305-.275-.467-.824-.467-1.282-.187z"/><path id="p0dse" d="M845.565 824.27l-2.01-.23c-.23-.838-.54-1.677-1.004-2.363l1.237-1.602a.809.809 0 0 0-.078-1.068l-1.7-1.678c-.309-.305-.695-.305-1.004-.076l-1.7 1.144a9.344 9.344 0 0 0-2.396-.991l-.31-2.06c-.076-.38-.385-.686-.772-.686h-2.473c-.386 0-.695.305-.773.686l-.309 2.06a9.344 9.344 0 0 0-2.395.991l-1.546-1.22c-.309-.229-.773-.229-1.004.076l-1.7 1.754c-.31.305-.31.687-.078.992l1.237 1.678a9.09 9.09 0 0 0-1.005 2.364l-2.087.305c-.386.076-.695.381-.695.763v2.44c0 .382.31.687.696.763l2.086.305c.232.839.54 1.678 1.005 2.364l-1.237 1.678c-.232.305-.232.763.077.992l1.7 1.754c.31.305.696.305 1.005.076l1.623-1.22a9.344 9.344 0 0 0 2.396.991l.309 2.06c.077.38.386.686.773.686h2.472c.387 0 .696-.305.773-.687l.31-2.059a9.344 9.344 0 0 0 2.395-.991l1.623 1.22c.154.076.309.153.463.153a.884.884 0 0 0 .619-.23l1.7-1.677c.309-.305.309-.687.077-.992l-1.314-1.83a9.09 9.09 0 0 0 1.005-2.364l2.086-.305c.387-.077.696-.382.696-.763v-2.44a.986.986 0 0 0-.773-.763z"/><path id="p0dsf" d="M834.671 821.33c-2.795 0-5.001 2.28-5.001 5.001 0 2.795 2.28 5.001 5.001 5.001 2.795 0 5-2.28 5-5.001 0-2.795-2.279-5.001-5-5.001z"/><path id="p0dsg" d="M804.169 807.153h-9.338v-5.316h9.246v5.316zm1.831-6.235c0-.55-.366-.918-.915-.918h-11.17c-.549 0-.915.367-.915.918v7.164c0 .55.366.918.915.918h11.078c.55 0 .915-.367.915-.918v-7.164z"/><path id="p0dsh" d="M804.169 819.153h-9.338v-5.316h9.246v5.316zm1.831-6.235c0-.55-.366-.918-.915-.918h-11.17c-.549 0-.915.367-.915.918v7.164c0 .55.366.918.915.918h11.078c.55 0 .915-.367.915-.918v-7.164z"/><path id="p0dsi" d="M803.238 831.153h-9.396v-5.316h9.304v5.316zm.921-7.153h-11.238c-.553 0-.921.367-.921.918v7.164c0 .55.368.918.921.918h11.146c.553 0 .921-.367.921-.918v-7.164c.092-.55-.368-.918-.829-.918z"/></defs><g><g transform="translate(-788 -781)"><g><use fill="#010101" xlink:href="#p0dsa"/></g><g><use fill="#010101" xlink:href="#p0dsb"/></g><g><use fill="#010101" xlink:href="#p0dsc"/></g><g><use fill="#010101" xlink:href="#p0dsd"/></g><g><use fill="#c8102e" xlink:href="#p0dse"/></g><g><use fill="#fff" xlink:href="#p0dsf"/></g><g><use fill="#010101" xlink:href="#p0dsg"/></g><g><use fill="#010101" xlink:href="#p0dsh"/></g><g><use fill="#010101" xlink:href="#p0dsi"/></g></g></g></svg>