<svg xmlns="http://www.w3.org/2000/svg" xmlns:xlink="http://www.w3.org/1999/xlink" width="144" height="159" viewBox="0 0 48 53"><defs><path id="p5ehb" d="M1410.854 811.017c-1.323-1.356-3.615-1.356-5.026 0l-6.612 6.78c-.441-1.537-1.764-2.712-3.439-2.712h-14.106c-1.411 0-2.734.542-3.703 1.627L1374 820.78l1.234 1.265 3.968-4.068c.705-.723 1.587-1.084 2.469-1.084h14.106c.97 0 1.764.813 1.764 1.808 0 .542-.177.994-.53 1.265a1.72 1.72 0 0 1-1.234.542h-6.524v1.808h6.612c.97 0 1.764-.361 2.47-.994l8.816-9.04c.705-.723 1.851-.723 2.468 0 .353.362.53.814.53 1.266 0 .452-.177.904-.53 1.266l-11.197 11.48c-1.146 1.175-2.733 1.898-4.32 1.898h-14.988V830h14.988c2.116 0 4.144-.814 5.643-2.35l11.197-11.48c.705-.724 1.058-1.628 1.058-2.532 0-.904-.44-1.988-1.146-2.621"/><path id="p5eha" d="M1364 819.09h13.983v17.914H1364z"/><path id="p5ehd" d="M1371.35 820.386c-.787-1.314-2.45-1.69-3.675-.845l-3.675 2.534 9.1 14.929 3.675-2.535c1.225-.845 1.575-2.629.787-3.944zm4.55 12.59l-2.188 1.503-7.174-11.838 2.187-1.505c.175-.093.438-.187.7-.093.263.093.438.188.525.376l6.213 10.241c.175.47.087 1.034-.263 1.316z"/><path id="p5ehe" d="M1388.93 804.362a10.009 10.009 0 0 1-10.03-10.029 10.01 10.01 0 0 1 10.03-10.03c5.555-.154 10.03 4.476 10.03 10.03a10.009 10.009 0 0 1-10.03 10.029z"/><path id="p5ehf" d="M1386.344 799.52h1.105v-2.209h2.761v-1.104h-2.761v-1.105h2.209a2.734 2.734 0 0 0 2.76-2.76 2.734 2.734 0 0 0-2.76-2.762h-3.314v6.627h-1.104v1.104h1.104zm1.105-8.836h2.209c.938 0 1.655.72 1.655 1.662s-.717 1.662-1.655 1.662h-2.209z"/><clipPath id="p5ehc"><use xlink:href="#p5eha"/></clipPath></defs><g><g transform="translate(-1364 -784)"><g><use xlink:href="#p5ehb"/></g><g><g/><g clip-path="url(#p5ehc)"><use xlink:href="#p5ehd"/></g></g><g><g><use fill="#c8102e" xlink:href="#p5ehe"/></g><g><use fill="#fff" xlink:href="#p5ehf"/><use fill="#fff" fill-opacity="0" stroke="#fff" stroke-miterlimit="50" stroke-width=".4" xlink:href="#p5ehf"/></g></g></g></g></svg>