<svg xmlns="http://www.w3.org/2000/svg" xmlns:xlink="http://www.w3.org/1999/xlink" width="198" height="159" viewBox="0 0 66 53"><defs><path id="vzr2a" d="M1071.499 832.3v-1H1134v1l-2 2.7h-58.5zm45-36.3v1.5h13.9v32.299h-55.4V797.5h3.3V796h-4.799v33.799h-3.5v3.001l2.799 3.6h60l2.801-3.6v-3.001h-3.7V796z"/><path id="vzr2b" d="M1088.3 812.799c-4.1 0-8.6-1.399-8.7-3.999V788c0-2.6 4.4-4 8.6-4 4.2 0 8.6 1.4 8.6 4v8.8h.5c.4 0 .9 0 1.3.1V793c0-2.3 3.5-4 8.2-4 4.7 0 8.2 1.7 8.2 4v15.8c0 2.3-3.5 3.999-8.2 3.999-2.1 0-4.1-.299-5.6-1-1.1.601-2.5 1-3.9 1-1.3 0-2.5-.299-3.6-.899-1.5.6-3.4.899-5.4.899zm0-1.5c1.4 0 2.7-.099 3.8-.5-1-.799-1.7-1.799-2.2-2.999-.5.1-1 .1-1.6.1-2.7 0-5.5-.6-7.1-1.7v2.6c0 1 2.8 2.499 7.1 2.499zm18.6 0c4.1 0 6.7-1.399 6.7-2.499v-3c-1.5 1-3.9 1.6-6.7 1.6-.7 0-1.3 0-1.9-.1-.4 1.3-1.2 2.5-2.2 3.4 1.2.4 2.6.599 4.1.599zm0-5.299c4.1 0 6.7-1.5 6.7-2.4v-3c-1.5 1-3.9 1.6-6.7 1.6-.6 0-1.3 0-1.9-.1.3.8.5 1.7.5 2.7 0 .4 0 .7-.1 1.1.5.1 1 .1 1.5.1zm0-15.5c-4.1 0-6.7 1.4-6.7 2.5 0 1 2.6 2.5 6.7 2.5 4.2 0 6.7-1.5 6.7-2.5s-2.6-2.5-6.7-2.5zm-6.7 6.6c1.6.7 3 1.8 3.9 3.2.9.2 1.8.3 2.8.3 4.2 0 6.7-1.5 6.7-2.5v-2.8c-1.5 1-3.9 1.6-6.7 1.6-2.9 0-5.2-.6-6.7-1.6zm3.7 7.7c0-3.6-2.9-6.6-6.5-6.5-3.6 0-6.5 2.9-6.5 6.5s2.9 6.499 6.5 6.499 6.5-2.899 6.5-6.499zm-15.6-19.3c-4.3 0-7.1 1.4-7.1 2.5 0 1 2.8 2.5 7.1 2.5s7.1-1.5 7.1-2.5-2.8-2.5-7.1-2.5zm-7.1 7.8c0 1 2.8 2.5 7.1 2.5s7.1-1.5 7.1-2.5v-3c-1.7 1.1-4.4 1.7-7.1 1.7-2.7 0-5.5-.6-7.1-1.7zm0 5.3c0 1 2.8 2.5 7.1 2.5.7 0 1.4 0 2-.1 1-2 2.9-3.4 5.1-4v-1.4c-1.7 1.1-4.4 1.7-7.1 1.7-2.7 0-5.5-.6-7.1-1.7zm0 2.3l.1.067v-.067zm.1.067v2.933c0 1 2.8 2.5 7.1 2.5h1.2c-.1-.5-.2-1-.2-1.6 0-.8.1-1.5.3-2.2h-1.4c-2.645 0-5.385-.576-7-1.633z"/><path id="vzr2c" d="M1097.93 816.362a10.009 10.009 0 0 1-10.03-10.029 10.01 10.01 0 0 1 10.03-10.03c5.555-.154 10.03 4.476 10.03 10.03a10.009 10.009 0 0 1-10.03 10.029z"/><path id="vzr2d" d="M1095.344 811.52h1.105v-2.209h2.761v-1.104h-2.761v-1.105h2.209a2.734 2.734 0 0 0 2.76-2.76 2.734 2.734 0 0 0-2.76-2.762h-3.314v6.627h-1.104v1.104h1.104zm1.105-8.836h2.209c.938 0 1.655.72 1.655 1.662s-.717 1.662-1.655 1.662h-2.209z"/><path id="vzr2e" d="M1114.402 815.5l3 9.5c.099.298.399.5.7.5.3 0 .599-.202.699-.5l1.3-3.6 3.9 3.898c.1.101.3.201.5.201s.4-.1.5-.2c.3-.3.3-.8 0-1.1l-3.8-3.8 3.6-1.3c.3-.1.5-.4.5-.7a.75.75 0 0 0-.5-.7l-9.5-3c-.3-.1-.6 0-.8.2-.1.1-.2.4-.1.6zm7.899 2.9l-2.7 1c-.1 0-.2.1-.3.2 0 0-.1.1-.1.198l-1 2.701-1.9-6z"/></defs><g><g transform="translate(-1070 -784)"><g><use xlink:href="#vzr2a"/></g><g><use xlink:href="#vzr2b"/></g><g><g><use fill="#c8102e" xlink:href="#vzr2c"/></g><g><use fill="#fff" xlink:href="#vzr2d"/><use fill="#fff" fill-opacity="0" stroke="#fff" stroke-miterlimit="50" stroke-width=".4" xlink:href="#vzr2d"/></g></g><g><use xlink:href="#vzr2e"/></g></g></g></svg>