<svg xmlns="http://www.w3.org/2000/svg" xmlns:xlink="http://www.w3.org/1999/xlink" width="174" height="177" viewBox="0 0 58 59"><defs><path id="u8f7a" d="M532 833v-1h1v1z"/><path id="u8f7b" d="M532 835v-1h1v1z"/><path id="u8f7c" d="M537.392 827.01a2.16 2.16 0 0 0-1.97-2.166v-1.714c5.103-.812 9.4-4.24 11.459-8.841h10.026v-.722c-.09-1.443-.179-2.796-.358-3.97a6.324 6.324 0 0 0-.537-1.713v-.09a2.84 2.84 0 0 0-1.253-1.263l-.537-.271-2.954-1.083-1.612 3.97h-1.432c0-.361.09-.812.09-1.173 0-.812-.09-1.624-.18-2.436h.448c2.148 0 3.939-1.804 3.939-3.97 0-2.164-1.79-3.969-3.94-3.969-1.163 0-2.237.542-3.043 1.444-2.775-3.97-7.34-6.586-12.533-6.586-5.192 0-9.758 2.616-12.533 6.586-.716-.902-1.79-1.444-3.044-1.444-2.148 0-3.939 1.805-3.939 3.97s1.79 3.97 3.94 3.97h.447c-.09.811-.18 1.623-.18 2.435 0 .36 0 .812.09 1.173h-1.432l-1.433-3.88-2.954 1.083-.537.27a2.84 2.84 0 0 0-1.253 1.264l-.09.18a5.473 5.473 0 0 0-.537 1.714c-.179 1.083-.268 2.346-.358 3.88v.721h10.027c2.059 4.601 6.356 8.03 11.458 8.841v1.714a2.16 2.16 0 0 0-1.97 2.165v1.444h-23.275V789.39h55.325v38.972h-23.365zm8.944-26.702c.448-.813 1.254-1.355 2.238-1.355 1.432 0 2.596 1.175 2.596 2.62 0 1.447-1.164 2.622-2.596 2.622-.268 0-.447-.09-.716-.09-.358-1.356-.895-2.622-1.522-3.797zm1.79 10.198h2.507l1.342-3.434 1.7.632c.09.09.27.09.359.181.358.18.537.452.806.723v.09c.268.452.358.814.447 1.175v.09c.09.904.269 1.898.269 3.073H547.5c.269-.904.448-1.717.627-2.53zm-29.089-2.532c0-7.758 6.263-14.073 13.958-14.073s13.958 6.315 13.958 14.073-6.263 14.073-13.958 14.073-13.958-6.315-13.958-14.073zm-.537 4.972h-8.056c.09-1.175.18-2.169.269-3.073v-.18c0-.362.179-.814.447-1.175v-.09c.18-.271.448-.543.717-.723.089-.09.268-.09.358-.181l1.7-.633 1.343 3.434h2.506c.268.994.447 1.808.716 2.62zm-.269-8.841c-.268.09-.447.09-.716.09-1.432 0-2.595-1.175-2.595-2.621s1.163-2.621 2.595-2.621c.895 0 1.79.542 2.238 1.355-.716 1.175-1.253 2.44-1.522 3.797zm17.802 31.475c0 1.714-1.34 3.067-3.038 3.067-1.698 0-3.038-1.353-3.038-3.067v-8.57c0-.452.357-.813.804-.813h1.162v-2.887c.357 0 .715.09 1.072.09.357 0 .715 0 1.072-.09v2.887h1.162c.447 0 .804.361.804.812zm-28.72-53.227h51.385c1.074 0 1.97.904 1.97 1.988v3.796h-55.325v-3.796c0-1.174.895-1.988 1.97-1.988zM562 784.338a3.317 3.317 0 0 0-3.312-3.338h-51.376c-1.88 0-3.312 1.534-3.312 3.338v45.468h24.614v5.774c0 2.435 1.97 4.42 4.386 4.42 2.417 0 4.386-1.985 4.386-4.42v-5.774H562z"/><path id="u8f7d" d="M549 785v-1h1v1z"/><path id="u8f7e" d="M553 785v-1h1v1z"/><path id="u8f7f" d="M556 785v-1h1v1z"/><path id="u8f7g" d="M509 785v-1h36v1z"/><path id="u8f7h" d="M540.487 813.248a34.254 34.254 0 0 0-.346-3.342v-.066c-.069-.459-.207-.983-.483-1.442l-.07-.065c-.276-.459-.69-.787-1.174-1.049-.138-.065-.345-.13-.483-.196l-2.625-.918-1.52 3.736h-1.865l-1.52-3.736-2.625.918c-.69.262-1.313.72-1.658 1.31-.345.59-.553 1.114-.553 1.704-.069.262-.276 1.311-.345 3.212v.524h15.336z"/><path id="u8f7i" d="M532.5 806.171a3.465 3.465 0 0 0 3.451-3.45 3.465 3.465 0 0 0-3.45-3.451 3.465 3.465 0 0 0-3.451 3.45 3.465 3.465 0 0 0 3.45 3.451z"/></defs><g><g transform="translate(-504 -781)"><g><use xlink:href="#u8f7a"/></g><g><use xlink:href="#u8f7b"/></g><g><use xlink:href="#u8f7c"/></g><g><use xlink:href="#u8f7d"/></g><g><use xlink:href="#u8f7e"/></g><g><use xlink:href="#u8f7f"/></g><g><use xlink:href="#u8f7g"/></g><g><use fill="#c8102e" xlink:href="#u8f7h"/></g><g><use fill="#c8102e" xlink:href="#u8f7i"/></g></g></g></svg>