<svg xmlns="http://www.w3.org/2000/svg" xmlns:xlink="http://www.w3.org/1999/xlink" width="183" height="195" viewBox="0 0 61 65"><defs><path id="ddtsa" d="M567.172 2057h-6.127v-4h6.127zm36.828-1v-4c0-.552-.458-1-1.023-1h-42.954c-.565 0-1.023.448-1.023 1v22h2.045v-15h6.137v9h2.045v-9h7.16v-2h-7.16v-4h32.728v3z"/><path id="ddtsb" d="M596.786 2033.483l8.743 8.782h-8.743zm-42.75-1.44h40.714v11.234a1.02 1.02 0 0 0 1.018 1.02h11.196v10.214H609v-11.234a1.023 1.023 0 0 0-.295-.725l-12.214-12.256a1.016 1.016 0 0 0-.723-.296h-42.75a1.02 1.02 0 0 0-1.018 1.021V2078h2.036z"/><path id="ddtsc" d="M563.5 2039c1.823 0 3.3 1.343 3.3 3s-1.477 3-3.3 3c-1.823 0-3.3-1.343-3.3-3s1.477-3 3.3-3zm0 8c3.038 0 5.5-2.239 5.5-5s-2.462-5-5.5-5-5.5 2.239-5.5 5 2.462 5 5.5 5z"/><path id="ddtsd" d="M570 2040v-2h11v2z"/><path id="ddtse" d="M570 2045v-2h2v2z"/><path id="ddtsf" d="M574 2045v-2h2v2z"/><path id="ddtsg" d="M594.652 2092.946h-6.131v-15.405h-2.044v15.405h-6.13v-31.417l14.305 14.379zm-16.349 0h-14.305v-17.038l6.131-6.163v16.012h2.044v-18.066l6.13-6.162zM609.978 2057h-8.174v2.054h6.008l-12.261 14.902-15.5-15.631a1.018 1.018 0 0 0-1.441 0L550 2087.082l1.44 1.448 10.515-10.568v14.984h-8.174v-3.081h-2.044v4.108c0 .567.457 1.027 1.022 1.027h55.176c.564 0 1.021-.46 1.021-1.027v-24.649h-2.043v23.622h-10.218v-17.09l4.087-4.991v15.919h2.044v-18.415l6.13-7.487v5.361H611v-8.216c0-.567-.457-1.027-1.022-1.027z"/><path id="ddtsh" d="M570 2090v-2h2v2z"/><path id="ddtsi" d="M587 2076v-2h2v2z"/><path id="ddtsj" d="M601 2091v-2h2v2z"/></defs><g><g transform="translate(-550 -2030)"><use xlink:href="#ddtsa"/></g><g transform="translate(-550 -2030)"><use xlink:href="#ddtsb"/></g><g transform="translate(-550 -2030)"><use xlink:href="#ddtsc"/></g><g transform="translate(-550 -2030)"><use xlink:href="#ddtsd"/></g><g transform="translate(-550 -2030)"><use xlink:href="#ddtse"/></g><g transform="translate(-550 -2030)"><use xlink:href="#ddtsf"/></g><g transform="translate(-550 -2030)"><use xlink:href="#ddtsg"/></g><g transform="translate(-550 -2030)"><use xlink:href="#ddtsh"/></g><g transform="translate(-550 -2030)"><use xlink:href="#ddtsi"/></g><g transform="translate(-550 -2030)"><use xlink:href="#ddtsj"/></g></g></svg>