<svg xmlns="http://www.w3.org/2000/svg" xmlns:xlink="http://www.w3.org/1999/xlink" width="98" height="145" viewBox="0 0 98 145"><defs><path id="u254a" d="M1029.08 2094.998h-94.434v-16.308l46.29-50.489c7.551-8.268 12.76-15.055 15.624-20.36 2.865-5.307 4.297-10.499 4.297-15.577 0-6.38-1.855-11.719-5.566-16.016-3.711-4.297-8.724-6.445-15.04-6.445-8.333 0-14.517 2.344-18.554 7.031-4.036 4.688-6.055 11.133-6.055 19.336h-22.949l-.195-.586c-.326-12.63 3.808-23.258 12.402-31.885 8.594-8.626 20.378-12.939 35.352-12.939 13.672 0 24.479 3.776 32.422 11.328 7.942 7.552 11.914 17.415 11.914 29.59 0 8.138-2.295 15.918-6.885 23.34-4.59 7.422-11.703 16.439-21.338 27.05l-31.64 33.399.292.586h64.063z"/></defs><g><g transform="translate(-932 -1950)"><use fill="#f5f5f5" fill-opacity=".87" xlink:href="#u254a"/></g></g></svg>