<svg xmlns="http://www.w3.org/2000/svg" xmlns:xlink="http://www.w3.org/1999/xlink" width="95" height="147" viewBox="0 0 95 147"><defs><path id="qzoda" d="M1343.082 2013.162h16.504c7.682 0 13.216-1.904 16.601-5.713 3.386-3.808 5.079-9.195 5.079-16.162 0-6.836-1.823-12.125-5.47-15.869-3.645-3.743-9.016-5.615-16.112-5.615-6.446 0-11.703 1.84-15.772 5.518-4.069 3.678-6.103 8.512-6.103 14.502h-22.852l-.195-.586c-.39-10.873 3.662-20.004 12.158-27.393 8.496-7.39 19.32-11.084 32.47-11.084 13.868 0 24.935 3.516 33.204 10.547 8.268 7.031 12.402 17.025 12.402 29.98 0 6.055-1.855 11.914-5.566 17.578-3.711 5.665-8.985 10.06-15.82 13.184 8.072 2.865 14.013 7.227 17.822 13.086 3.808 5.86 5.713 12.533 5.713 20.02 0 13.02-4.476 23.258-13.428 30.712-8.952 7.455-20.394 11.182-34.326 11.182-13.152 0-24.203-3.5-33.155-10.498-8.952-6.999-13.232-16.683-12.842-29.053l.196-.586h22.851c0 6.315 2.116 11.426 6.348 15.332 4.232 3.907 9.863 5.86 16.895 5.86 7.356 0 13.15-1.986 17.382-5.957 4.232-3.972 6.348-9.603 6.348-16.895 0-8.008-1.937-13.916-5.81-17.724-3.874-3.809-9.88-5.713-18.018-5.713h-16.504z"/></defs><g><g transform="translate(-1313 -1950)"><use fill="#f5f5f5" fill-opacity=".87" xlink:href="#qzoda"/></g></g></svg>