<svg xmlns="http://www.w3.org/2000/svg" xmlns:xlink="http://www.w3.org/1999/xlink" width="54" height="42" viewBox="0 0 18 14"><defs><path id="tlq9a" d="M282 30a1 1 0 0 1 1-1h16a1 1 0 0 1 0 2h-16a1 1 0 0 1-1-1z"/><path id="tlq9b" d="M282 36a1 1 0 0 1 1-1h16a1 1 0 0 1 0 2h-16a1 1 0 0 1-1-1z"/><path id="tlq9c" d="M282 42a1 1 0 0 1 1-1h16a1 1 0 0 1 0 2h-16a1 1 0 0 1-1-1z"/></defs><g><g transform="translate(-282 -29)"><g><use fill="#323232" xlink:href="#tlq9a"/></g><g><use fill="#323232" xlink:href="#tlq9b"/></g><g><use fill="#323232" xlink:href="#tlq9c"/></g></g></g></svg>